<?xml version="1.0" standalone="no"?><!DOCTYPE svg PUBLIC "-//W3C//DTD SVG 1.1//EN" "http://www.w3.org/Graphics/SVG/1.1/DTD/svg11.dtd"><svg t="1713084241321" class="icon" viewBox="0 0 1026 1024" version="1.1" xmlns="http://www.w3.org/2000/svg" p-id="12866" xmlns:xlink="http://www.w3.org/1999/xlink" width="200.390625" height="200"><path d="M878.833436 377.492825a33.939364 33.939364 0 0 1-3.228011-8.416963c-32.973978-137.839071-151.927678-240.019183-293.839472-240.200192-135.15409-0.211178-249.733383 92.103892-289.19355 219.836574a33.999701 33.999701 0 0 1-32.611958 23.92348h-0.301684a34.120374 34.120374 0 0 0-34.18071 34.090206l-0.663703 483.628396c0 50.3811 47.032417 91.651367 104.653914 91.711704l518.080622 0.784377c57.621498 0 53.790121-48.269318 53.850458-98.740924l-13.636082-482.482a34.029869 34.029869 0 0 0-4.193397-15.47635z" fill="#56E5BE" p-id="12867"></path><path d="M894.611469 441.962532a28.690076 28.690076 0 0 1-3.016832-7.421407 278.604469 278.604469 0 0 0-536.060943-18.100995 31.13371 31.13371 0 0 1-29.957145 21.117827h-0.271515a30.801858 30.801858 0 0 0-31.435394 30.168324l-0.603366 427.213631c0 44.468109 43.231208 80.911444 96.236952 80.97178l466.010096 0.693872c52.975576 0 45.765347-47.907298 45.825683-92.375407l1.44808-420.968788a29.595125 29.595125 0 0 0-3.861546-13.666251z" fill="#50DDB8" p-id="12868"></path><path d="M869.903612 499.644367a26.608461 26.608461 0 0 1-2.473803-6.576695c-25.160382-107.369064-116.057541-187.043607-224.482496-187.043606-103.236003 0-190.784479 71.770442-220.922634 171.295741a26.005095 26.005095 0 0 1-24.858698 18.613856h-0.241347a26.367115 26.367115 0 0 0-26.125768 26.548125l-0.54303 377.104045c0 39.218821 35.930473 71.378254 79.946058 71.438591l395.778237 0.573198c44.045753 0 41.089257-37.680236 41.149594-76.929225l-10.408072-375.987818a26.759303 26.759303 0 0 0-3.197842-12.067329z" fill="#42D3AD" p-id="12869"></path><path d="M337.824888 535.031811m17.437291 0l29.957145 0q17.437291 0 17.437292 17.437291l0 260.262128q0 17.437291-17.437292 17.437291l-29.957145 0q-17.437291 0-17.437291-17.437291l0-260.262128q0-17.437291 17.437291-17.437291Z" fill="#2E3138" p-id="12870"></path><path d="M485.860852 573.224908m17.437291 0l29.957146 0q17.437291 0 17.437291 17.437291l0 222.069031q0 17.437291-17.437291 17.437291l-29.957146 0q-17.437291 0-17.437291-17.437291l0-222.069031q0-17.437291 17.437291-17.437291Z" fill="#2E3138" p-id="12871"></path><path d="M644.847918 464.890458m17.437291 0l29.957145 0q17.437291 0 17.437291 17.437291l0 330.373312q0 17.437291-17.437291 17.437291l-29.957145 0q-17.437291 0-17.437291-17.437291l0-330.373312q0-17.437291 17.437291-17.437291Z" fill="#2E3138" p-id="12872"></path><path d="M780.695879 1024H252.418364c-72.826333 0-132.107089-58.164528-132.107089-129.723792V303.761442h50.501773v590.575103c0 43.653564 36.624345 79.161681 81.605316 79.161681h528.277515c44.980971 0 81.454474-35.508117 81.454474-79.161681V303.761442h50.471605v590.575103c0.150842 71.43859-59.099746 129.663455-131.926079 129.663455zM789.324019 291.72428c-20.816143-137.507219-141.579943-241.195747-280.927429-241.195747s-259.839771 103.47735-280.867093 240.713054L177.63109 283.609001a334.687382 334.687382 0 0 1 661.621505 0.573199z" fill="#2E3138" p-id="12873"></path><path d="M1001.196156 322.194287H25.250887a25.250887 25.250887 0 0 1 0-50.501773h975.945269a25.250887 25.250887 0 0 1 0 50.501773z" fill="#2E3138" p-id="12874"></path></svg>