<?xml version="1.0" standalone="no"?><!DOCTYPE svg PUBLIC "-//W3C//DTD SVG 1.1//EN" "http://www.w3.org/Graphics/SVG/1.1/DTD/svg11.dtd"><svg t="1713082612190" class="icon" viewBox="0 0 1024 1024" version="1.1" xmlns="http://www.w3.org/2000/svg" p-id="5238" xmlns:xlink="http://www.w3.org/1999/xlink" width="200" height="200"><path d="M768 298.666667l-256-256L261.333333 298.666667 85.333333 298.666667l0 640 853.333333 0L938.666667 298.666667 768 298.666667zM512 128l170.666667 170.666667L341.333333 298.666667 512 128zM896 896 128 896 128 341.333333l768 0L896 896zM384 682.666667c-47.104 0-85.333333-38.186667-85.333333-85.333333 0-47.146667 38.229333-85.333333 85.333333-85.333333s85.333333 38.186667 85.333333 85.333333C469.333333 644.48 431.104 682.666667 384 682.666667c70.741333 0 128 85.333333 128 170.666667 0-85.333333 57.258667-170.666667 128-170.666667-47.104 0-85.333333-38.186667-85.333333-85.333333 0-47.146667 38.186667-85.333333 85.333333-85.333333 47.146667 0 85.333333 38.186667 85.333333 85.333333 0 47.146667-38.186667 85.333333-85.333333 85.333333 74.24 0 128 85.333333 128 170.666667l85.333333 0c0-41.088-0.298667-34.218667 0-469.333333L170.666667 384l0 469.333333 85.333333 0C256 768 309.76 682.666667 384 682.666667z" fill="#1296db" p-id="5239"></path></svg>