<?xml version="1.0" standalone="no"?><!DOCTYPE svg PUBLIC "-//W3C//DTD SVG 1.1//EN" "http://www.w3.org/Graphics/SVG/1.1/DTD/svg11.dtd"><svg t="1713082503050" class="icon" viewBox="0 0 1024 1024" version="1.1" xmlns="http://www.w3.org/2000/svg" p-id="3821" xmlns:xlink="http://www.w3.org/1999/xlink" width="200" height="200"><path d="M430.336 1008H0c0-219.52 147.264-402.752 343.36-445.888A288.128 288.128 0 0 1 432 0a288 288 0 0 1 193.28 501.504h-45.056l-59.072 60.416a285.952 285.952 0 0 1-0.192 0.256l-90.624 92.736v353.088z" fill="#1296db" p-id="3822"></path><path d="M612.032 648L647.936 576H864l36.032 72h107.968v360H504v-360h108.032z m144 288a108.032 108.032 0 1 0 0-216 108.032 108.032 0 0 0 0 216z" fill="#1296db" p-id="3823"></path></svg>