<?xml version="1.0" standalone="no"?><!DOCTYPE svg PUBLIC "-//W3C//DTD SVG 1.1//EN" "http://www.w3.org/Graphics/SVG/1.1/DTD/svg11.dtd"><svg t="1712039089216" class="icon" viewBox="0 0 1024 1024" version="1.1" xmlns="http://www.w3.org/2000/svg" p-id="4285" xmlns:xlink="http://www.w3.org/1999/xlink" width="200" height="200"><path d="M891.733333 110.933333H140.8c-46.933333 0-85.333333 38.4-85.333333 85.333334v499.2c0 46.933333 38.4 85.333333 85.333333 85.333333H213.333333c21.333333 0 42.666667 8.533333 59.733334 25.6l64 64c34.133333 34.133333 85.333333 34.133333 119.466666 0l64-64c17.066667-17.066667 38.4-25.6 59.733334-25.6H896c46.933333 0 85.333333-38.4 85.333333-85.333333V196.266667c-4.266667-46.933333-42.666667-85.333333-89.6-85.333334z" fill="#FFDA00" p-id="4286"></path><path d="M264.533333 448m-46.933333 0a46.933333 46.933333 0 1 0 93.866667 0 46.933333 46.933333 0 1 0-93.866667 0Z" fill="#1A1311" p-id="4287"></path><path d="M516.266667 448m-46.933334 0a46.933333 46.933333 0 1 0 93.866667 0 46.933333 46.933333 0 1 0-93.866667 0Z" fill="#1A1311" p-id="4288"></path><path d="M763.733333 448m-46.933333 0a46.933333 46.933333 0 1 0 93.866667 0 46.933333 46.933333 0 1 0-93.866667 0Z" fill="#1A1311" p-id="4289"></path></svg>