<?xml version="1.0" standalone="no"?><!DOCTYPE svg PUBLIC "-//W3C//DTD SVG 1.1//EN" "http://www.w3.org/Graphics/SVG/1.1/DTD/svg11.dtd"><svg t="1712113397218" class="icon" viewBox="0 0 1024 1024" version="1.1" xmlns="http://www.w3.org/2000/svg" p-id="2326" xmlns:xlink="http://www.w3.org/1999/xlink" width="200" height="200"><path d="M146.387478 436.313043H238.191304V1024H146.387478C103.513043 1024 66.782609 981.170087 66.782609 932.196174V534.26087c0-55.073391 36.730435-97.947826 79.604869-97.947827z m759.095652 12.243479c18.342957 24.486957 24.486957 55.117913 18.342957 79.604869l-104.047304 422.377739c-12.243478 42.874435-42.874435 73.46087-79.60487 73.46087H287.165217V430.213565c104.091826-24.486957 177.552696-128.578783 177.552696-263.257043v-30.586435c0-48.973913 42.829913-91.848348 85.704348-91.848348 30.586435 0 61.217391 24.486957 73.460869 61.217391l6.099479 18.387479c18.387478 61.217391 18.387478 128.534261 6.144 189.751652l-6.144 18.387478c0 12.243478-12.243478 48.973913-24.486957 73.46087h238.770087c24.486957 6.099478 48.973913 18.342957 61.217391 42.829913z" fill="#f4ea2a" p-id="2327"></path></svg>